<?xml version="1.0" standalone="no"?>
<!DOCTYPE svg PUBLIC "-//W3C//DTD SVG 20010904//EN"
 "http://www.w3.org/TR/2001/REC-SVG-20010904/DTD/svg10.dtd">
<svg version="1.0" xmlns="http://www.w3.org/2000/svg"
 width="1181.000000pt" height="1181.000000pt" viewBox="0 0 1181.000000 1181.000000"
 preserveAspectRatio="xMidYMid meet">

<g transform="translate(0.000000,1181.000000) scale(0.100000,-0.100000)"
fill="#000000" stroke="none">
<path d="M0 5905 l0 -5905 5905 0 5905 0 0 5905 0 5905 -5905 0 -5905 0 0
-5905z m6576 4371 c108 -50 184 -146 205 -263 9 -47 7 -78 -12 -181 -16 -95
-20 -147 -16 -217 13 -216 132 -425 311 -543 85 -57 96 -62 259 -118 153 -53
261 -106 382 -187 107 -73 259 -220 342 -333 126 -172 227 -419 259 -634 31
-215 2 -536 -60 -659 -31 -60 -98 -126 -161 -159 -72 -37 -197 -43 -278 -12
-90 34 -150 87 -192 172 -42 87 -47 150 -20 293 61 325 -74 626 -355 788 -25
14 -107 47 -184 72 -222 73 -393 170 -537 303 -38 35 -72 63 -74 60 -3 -2
-223 -789 -490 -1749 -267 -959 -527 -1890 -576 -2068 -99 -356 -124 -432
-176 -536 -208 -415 -603 -706 -1063 -781 -151 -25 -360 -21 -505 9 -289 61
-506 174 -713 371 -284 271 -442 641 -442 1033 0 135 13 232 50 380 133 526
580 935 1135 1039 148 28 374 26 525 -5 259 -53 499 -173 683 -341 37 -35 70
-60 73 -57 4 3 264 933 580 2066 315 1134 583 2079 594 2102 43 83 136 154
235 180 57 15 158 4 221 -25z m151 -4170 c60 -28 92 -70 127 -168 31 -85 62
-132 125 -191 62 -58 154 -103 236 -115 65 -10 89 -9 210 15 442 87 873 -158
1020 -579 51 -143 22 -254 -80 -313 -91 -54 -227 -27 -281 55 -14 20 -36 68
-50 106 -35 97 -84 167 -154 219 -121 88 -233 110 -397 76 -118 -24 -263 -27
-368 -7 -38 8 -72 12 -74 10 -2 -2 146 -595 329 -1316 l334 -1313 0 -145 c1
-111 -4 -161 -18 -215 -93 -349 -375 -610 -718 -665 -121 -20 -303 -9 -408 25
-294 93 -521 332 -602 635 -31 117 -31 317 0 435 27 101 108 261 173 342 179
225 491 354 777 322 48 -5 102 -14 121 -19 19 -5 36 -8 38 -6 2 1 -144 581
-323 1287 -214 841 -327 1301 -327 1334 0 117 99 212 223 214 19 1 58 -10 87
-23z"/>
</g>
</svg>
